<?xml version="1.0" encoding="UTF-8"?>
<svg width="38px" height="48px" viewBox="0 0 38 48" version="1.1" xmlns="http://www.w3.org/2000/svg" xmlns:xlink="http://www.w3.org/1999/xlink">
    <title>Group Copy</title>
    <g id="Dealers-/-Map" stroke="none" stroke-width="1" fill="none" fill-rule="evenodd">
        <g id="Map-EU" transform="translate(-665.000000, -314.000000)">
            <g id="Group-Copy" transform="translate(665.000000, 314.000000)">
                <path d="M37.992395,19.7653333 C37.992395,30.6808889 19.0000503,48 19.0000503,48 C19.0000503,48 0.00770555717,30.6808889 0.00770555717,19.7653333 C-0.292315875,9.15587544 8.20597812,0.311700809 19.0000503,0 C29.7932401,0.313633852 38.2904025,9.15663083 37.992395,19.7653333 Z" id="Path" fill="#003248"></path>
                <path d="M10.244799,15.8040518 C10.2054943,23.7406434 15.7804134,26.0397514 18.1797383,26.6094368 C18.2225111,26.1821247 18.4937911,24.2388539 19.8353554,23.0389601 C18.9710358,24.7950897 19.353872,27.0615345 21.2780716,27.3704904 L21.2780716,27.3704904 C14.3203568,28.3749812 11.2848341,25.5077248 10.2559739,24.4507807 C9.88893675,24.0732321 8.64544175,23.1092821 7.82717041,24.4307985 L7.82717041,24.4307985 C7.02180798,21.4496051 8.48533262,16.9787757 10.244799,15.8040518 Z M24.9887115,10.7080094 C29.3482655,16.2088838 28.3826013,20.2650822 27.9826175,21.6824748 C27.840234,22.1889472 27.6257918,23.7460232 29.1831469,23.7875248 L29.1831469,23.7875248 L28.9783056,23.9837072 C26.7229523,26.0361721 22.3300522,26.9284769 20.4865814,26.0276468 C27.3916972,22.0823113 26.5899955,16.1195403 25.8807757,13.7629833 C25.4896547,13.9414784 23.668919,14.6810126 21.9539595,14.1255453 C23.9118765,13.9898968 25.6852152,12.5237015 24.9875555,10.7085858 C24.9871702,10.7078173 24.9881335,10.7072409 24.9887115,10.7080094 Z M17.9161652,5.68421053 L18.1531132,5.75132028 C21.0759312,6.65121736 24.077208,10.0135363 24.2205345,12.0646868 C17.3350711,8.08534316 12.5632024,11.7670671 10.875024,13.5602791 C11.2258769,13.8087119 12.7799567,15.0087979 13.1583614,16.7672331 C12.0587912,15.1455992 9.89760692,14.3501532 8.67337897,15.8622692 C8.67280096,15.8630377 8.6718376,15.8624613 8.67200521,15.8616928 C11.2582455,9.34307015 15.2607812,8.14067854 16.6917445,7.77542663 C17.2017432,7.64535006 18.6606437,7.04876554 17.9161652,5.68421053 L17.9161652,5.68421053 Z" id="Combined-Shape" fill="#FFFFFF"></path>
            </g>
        </g>
    </g>
</svg>