<svg xmlns="http://www.w3.org/2000/svg" xmlns:xlink="http://www.w3.org/1999/xlink" width="168" height="31" viewBox="0 0 168 31">
    <defs>
        <path id="prefix__a" d="M0.127 0L17.253 0 17.253 5.985 0.127 5.985z"/>
        <path id="prefix__c" d="M0.171 0L10.795 0 10.795 5.985 0.171 5.985z"/>
    </defs>
    <g fill="none" fill-rule="evenodd">
        <g fill="#FFF">
            <path d="M21.566 8.391c-.191-2.74-4.293-7.281-8.18-8.302.966 1.776-.927 2.552-1.589 2.721-1.857.475-7.05 2.04-10.406 10.522 0 0 .001.002.002 0 1.588-1.967 4.392-.932 5.82 1.178-.492-2.288-2.508-3.85-2.963-4.173 2.19-2.333 8.382-7.123 17.316-1.946"/>
            <path d="M16.721 26.56c2.467 1.208 8.451-.064 11.285-2.915-2.021-.055-1.743-2.08-1.558-2.74.518-1.844 1.771-7.122-3.885-14.279h-.002c.905 2.362-1.395 4.27-3.936 4.447 2.225.723 4.588-.24 5.095-.472.92 3.066 1.96 10.825-6.999 15.958"/>
            <path d="M3.432 13.257C1.149 14.785-.75 20.602.294 24.482c1.063-1.72 2.676-.466 3.152.026 1.335 1.375 5.274 5.105 14.302 3.8v-.002c-2.497-.402-2.994-3.35-1.872-5.636-1.74 1.562-2.093 4.09-2.148 4.646-3.114-.741-10.347-3.732-10.296-14.06"/>
        </g>
        <path fill="#FFF" d="M45.316 10.175c2.019.362 2.32.32 2.32 2.237v3.29c-.65.214-1.276.363-2.158.363-3.62 0-4.594-2.94-4.594-6.455 0-2.77.326-6.349 3.643-6.349 1.996 0 2.599 1.264 2.692 2.031h2.784c-.186-1.683-1.694-3.032-5.151-3.032-5.105 0-6.52 2.961-6.52 7.18 0 4.665 1.601 7.626 6.636 7.626 2.065 0 4.246-.575 5.22-.873V9.706h-4.872v.47M59.78 9.205h-1.322V5.413c0-1.534 0-1.918 1.554-1.918 1.95 0 3.388.64 3.388 2.94 0 2.387-2.112 2.77-3.62 2.77zm2.622.618c1.832-.277 3.55-1.087 3.55-3.515 0-3.814-4.502-3.814-6.544-3.814h-5.707v.469c2.158.32 2.205.32 2.205 2.429v11.44h2.552v-6.626h1.438l4.107 6.626h2.668L62.4 9.823zM131.989 16.832L134.542 16.832 134.542 2.463 131.989 2.463zM110.841 2.494v11.59h-.046l-6.078-9.682c-1.227-1.82-2.479-1.794-4.65-1.873l-1.369-.008v.454c2.172.237 2.213.663 2.213 2.246v11.61h1.461V4.71h.047l7.657 12.122h2.227V2.494h-1.462M151.136 2.494v11.59h-.047l-6.078-9.682c-1.227-1.82-2.479-1.794-4.65-1.873l-1.369-.008v.454c2.172.237 2.213.663 2.213 2.246v11.61h1.461V4.71h.047l7.657 12.122h2.227V2.494h-1.462M124.385 15.83h-1.996c-1.554 0-1.554 0-1.554-1.597V2.463h-2.552v14.369h9.42l.059-2.562h-.67c-.192 1.545-1.37 1.56-2.707 1.56M79.132 11.458h-.53c-.124-.632-.451-1.252-1.511-1.251L74.2 10.2v1.524h-.008v2.87c0 1.193.302 1.236 1.462 1.236h2.575c1.164 0 1.788-.331 2.016-1.542.003-.011.004-.023.006-.034h.704v.034l-.058 2.543h-9.257V5.392c0-2.11-.07-2.11-2.205-2.429v-.469h9.214c.049.013.471-.027.884.058.413.084.874.505 1.045 1.221l.033 1.529h-.658c-.128-1.42-1.068-1.807-2.49-1.807h-1.81c-1.159 0-1.461.086-1.461 1.109v2.999h.008V9.2h2.616v-.004c1.281-.045 1.65-.591 1.786-1.276h.53v3.538M93.988 11.458h-.53c-.125-.632-.452-1.252-1.511-1.251l-2.89-.006v1.524h-.008v2.87c0 1.193.302 1.236 1.461 1.236h2.576c1.163 0 1.788-.331 2.016-1.542l.005-.034h.705l-.058 2.577h-9.257V5.392c0-2.11-.07-2.11-2.205-2.429v-.469h9.214c.049.013.471-.027.884.058.413.084.874.505 1.044 1.221l.034 1.529h-.658c-.128-1.42-1.068-1.807-2.49-1.807h-1.81c-1.16 0-1.461.086-1.461 1.109v2.999h.007V9.2h2.616v-.004c1.282-.045 1.65-.591 1.786-1.276h.53v3.538M166.035 11.458h-.53c-.125-.632-.452-1.252-1.512-1.251l-2.89-.006v1.524h-.008v2.87c0 1.193.302 1.236 1.462 1.236h2.575c1.164 0 1.788-.331 2.017-1.542l.005-.034h.704l-.058 2.577h-9.257V5.392c0-2.11-.07-2.11-2.205-2.429v-.469h9.214c.049.013.472-.027.884.058.413.084.874.505 1.045 1.221l.033 1.529h-.658c-.128-1.42-1.068-1.807-2.49-1.807h-1.81c-1.159 0-1.461.086-1.461 1.109v2.999h.008V9.2h2.615v-.004c1.282-.045 1.651-.591 1.787-1.276h.53v3.538"/>
        <g transform="translate(84.25 24.25)">
            <mask id="prefix__b" fill="#fff">
                <use xlink:href="#prefix__a"/>
            </mask>
            <path fill="#FFF" d="M2.333 2.474L1.21.047.127.047 1.85 3.528 1.85 5.952 2.814 5.952 2.814 3.527 4.54.047 3.456.047 2.333 2.474M16.177 4.23c-.222.494-.543.734-.984.734-.182 0-.34-.038-.472-.12-.135-.069-.243-.157-.326-.268-.1-.111-.166-.26-.198-.446-.04-.193-.061-.573-.061-1.13 0-.556.021-.94.06-1.14.033-.178.1-.325.202-.44.082-.11.188-.199.323-.272.132-.07.292-.108.47-.112.247.004.46.078.63.218.169.152.287.338.351.552l.017.061h1.06l-.019-.1c-.091-.495-.315-.916-.666-1.252-.35-.335-.81-.509-1.369-.515-.455.006-.838.12-1.141.339-.307.213-.534.461-.672.733-.09.147-.155.34-.197.576-.04.233-.06.674-.06 1.351 0 .666.02 1.106.06 1.345.02.132.047.238.08.324.034.08.072.164.114.254.14.276.367.522.674.732.304.218.688.335 1.142.346.5 0 .939-.15 1.308-.444.355-.295.6-.724.726-1.272l.024-.104H16.2l-.023.05" mask="url(#prefix__b)"/>
        </g>
        <path fill="#FFF" d="M107.777 26.756L105.744 26.756 105.744 24.297 104.732 24.297 104.732 30.202 105.744 30.202 105.744 27.697 107.777 27.697 107.777 30.202 108.788 30.202 108.788 24.297 107.777 24.297 107.777 26.756"/>
        <g transform="translate(111.25 24.25)">
            <mask id="prefix__d" fill="#fff">
                <use xlink:href="#prefix__c"/>
            </mask>
            <path fill="#FFF" d="M.171.989L1.694.989 1.694 5.952 2.704 5.952 2.704.989 4.228.989 4.228.047.171.047.171.989M10.407 3.122c-.261-.329-.668-.534-1.209-.61-.266-.034-.474-.065-.62-.09-.256-.049-.441-.136-.553-.258-.109-.117-.163-.25-.163-.389.005-.252.085-.434.245-.556.157-.122.357-.183.593-.183.482.01.93.153 1.331.426l.071.048.561-.852-.064-.048C10.075.222 9.453.016 8.747 0 8.152.006 7.685.171 7.36.488c-.339.324-.51.752-.51 1.274 0 .438.137.814.405 1.12.263.296.646.49 1.143.575l.733.107c.444.078.657.302.653.684-.008.473-.34.707-1.011.716-.586-.005-1.099-.19-1.525-.55l-.065-.055-.66.781.062.054C7.19 5.73 7.922 6 8.763 6c1.319-.018 2.002-.607 2.032-1.754 0-.426-.13-.804-.388-1.124" mask="url(#prefix__d)"/>
        </g>
        <path fill="#FFF" d="M92.073 27.979l.694-2.17.695 2.17h-1.389zm1.106-3.682h-.827l-2.078 5.905h1.073l.426-1.282h1.985l.431 1.282h1.07l-2.08-5.905zM38.694 27.703L82.05 27.703 82.05 26.758 38.694 26.758zM124.259 27.703L167.616 27.703 167.616 26.758 124.259 26.758z"/>
    </g>
</svg>
