<?xml version="1.0" encoding="UTF-8" standalone="no"?>
<svg
   xmlns:dc="http://purl.org/dc/elements/1.1/"
   xmlns:cc="http://creativecommons.org/ns#"
   xmlns:rdf="http://www.w3.org/1999/02/22-rdf-syntax-ns#"
   xmlns:svg="http://www.w3.org/2000/svg"
   xmlns="http://www.w3.org/2000/svg"
   id="svg122"
   version="1.1"
   viewBox="0 0 168 31"
   height="31"
   width="168">
  <metadata
     id="metadata126">
    <rdf:RDF>
      <cc:Work
         rdf:about="">
        <dc:format>image/svg+xml</dc:format>
        <dc:type
           rdf:resource="http://purl.org/dc/dcmitype/StillImage" />
        <dc:title></dc:title>
      </cc:Work>
    </rdf:RDF>
  </metadata>
  <defs
     id="defs90" />
  <g
     id="g98"
     style="fill:#222222;fill-opacity:1;fill-rule:evenodd">
    <path
       d="M 21.566,8.391 C 21.375,5.651 17.273,1.11 13.386,0.089 14.352,1.865 12.459,2.641 11.797,2.81 9.94,3.285 4.747,4.85 1.391,13.332 c 0,0 10e-4,0.002 0.002,0 C 2.981,11.365 5.785,12.4 7.213,14.51 6.721,12.222 4.705,10.66 4.25,10.337 6.44,8.004 12.632,3.214 21.566,8.391"
       id="path92"
       style="fill:#222222;fill-opacity:1" />
    <path
       d="m 16.721,26.56 c 2.467,1.208 8.451,-0.064 11.285,-2.915 -2.021,-0.055 -1.743,-2.08 -1.558,-2.74 0.518,-1.844 1.771,-7.122 -3.885,-14.279 h -0.002 c 0.905,2.362 -1.395,4.27 -3.936,4.447 2.225,0.723 4.588,-0.24 5.095,-0.472 0.92,3.066 1.96,10.825 -6.999,15.958"
       id="path94"
       style="fill:#222222;fill-opacity:1" />
    <path
       d="m 3.432,13.257 c -2.283,1.528 -4.182,7.345 -3.138,11.225 1.063,-1.72 2.676,-0.466 3.152,0.026 1.335,1.375 5.274,5.105 14.302,3.8 v -0.002 c -2.497,-0.402 -2.994,-3.35 -1.872,-5.636 -1.74,1.562 -2.093,4.09 -2.148,4.646 C 10.614,26.575 3.381,23.584 3.432,13.256"
       id="path96"
       style="fill:#222222;fill-opacity:1" />
  </g>
  <path
     d="m 45.316,10.175 c 2.019,0.362 2.32,0.32 2.32,2.237 v 3.29 c -0.65,0.214 -1.276,0.363 -2.158,0.363 -3.62,0 -4.594,-2.94 -4.594,-6.455 0,-2.77 0.326,-6.349 3.643,-6.349 1.996,0 2.599,1.264 2.692,2.031 h 2.784 C 49.817,3.609 48.309,2.26 44.852,2.26 c -5.105,0 -6.52,2.961 -6.52,7.18 0,4.665 1.601,7.626 6.636,7.626 2.065,0 4.246,-0.575 5.22,-0.873 V 9.706 h -4.872 v 0.47 M 59.78,9.205 H 58.458 V 5.413 c 0,-1.534 0,-1.918 1.554,-1.918 1.95,0 3.388,0.64 3.388,2.94 0,2.387 -2.112,2.77 -3.62,2.77 z m 2.622,0.618 c 1.832,-0.277 3.55,-1.087 3.55,-3.515 0,-3.814 -4.502,-3.814 -6.544,-3.814 h -5.707 v 0.469 c 2.158,0.32 2.205,0.32 2.205,2.429 v 11.44 h 2.552 v -6.626 h 1.438 l 4.107,6.626 h 2.668 L 62.4,9.823 Z m 69.587,7.009 h 2.553 V 2.463 h -2.553 z M 110.841,2.494 v 11.59 h -0.046 l -6.078,-9.682 c -1.227,-1.82 -2.479,-1.794 -4.65,-1.873 L 98.698,2.521 v 0.454 c 2.172,0.237 2.213,0.663 2.213,2.246 v 11.61 h 1.461 V 4.71 h 0.047 l 7.657,12.122 h 2.227 V 2.494 h -1.462 m 40.295,0 v 11.59 h -0.047 l -6.078,-9.682 c -1.227,-1.82 -2.479,-1.794 -4.65,-1.873 l -1.369,-0.008 v 0.454 c 2.172,0.237 2.213,0.663 2.213,2.246 v 11.61 h 1.461 V 4.71 h 0.047 l 7.657,12.122 h 2.227 V 2.494 h -1.462 m -26.75,13.336 h -1.996 c -1.554,0 -1.554,0 -1.554,-1.597 V 2.463 h -2.552 v 14.369 h 9.42 l 0.059,-2.562 h -0.67 c -0.192,1.545 -1.37,1.56 -2.707,1.56 M 79.132,11.458 h -0.53 C 78.478,10.826 78.151,10.206 77.091,10.207 L 74.2,10.2 v 1.524 h -0.008 v 2.87 c 0,1.193 0.302,1.236 1.462,1.236 h 2.575 c 1.164,0 1.788,-0.331 2.016,-1.542 0.003,-0.011 0.004,-0.023 0.006,-0.034 h 0.704 v 0.034 l -0.058,2.543 H 71.64 V 5.392 c 0,-2.11 -0.07,-2.11 -2.205,-2.429 V 2.494 h 9.214 c 0.049,0.013 0.471,-0.027 0.884,0.058 0.413,0.084 0.874,0.505 1.045,1.221 l 0.033,1.529 H 79.953 C 79.825,3.882 78.885,3.495 77.463,3.495 h -1.81 c -1.159,0 -1.461,0.086 -1.461,1.109 V 7.603 H 74.2 V 9.2 h 2.616 V 9.196 c 1.281,-0.045 1.65,-0.591 1.786,-1.276 h 0.53 v 3.538 m 14.856,0 h -0.53 c -0.125,-0.632 -0.452,-1.252 -1.511,-1.251 l -2.89,-0.006 v 1.524 h -0.008 v 2.87 c 0,1.193 0.302,1.236 1.461,1.236 h 2.576 c 1.163,0 1.788,-0.331 2.016,-1.542 l 0.005,-0.034 h 0.705 l -0.058,2.577 H 86.497 V 5.392 c 0,-2.11 -0.07,-2.11 -2.205,-2.429 V 2.494 h 9.214 c 0.049,0.013 0.471,-0.027 0.884,0.058 0.413,0.084 0.874,0.505 1.044,1.221 l 0.034,1.529 H 94.81 C 94.682,3.882 93.742,3.495 92.32,3.495 h -1.81 c -1.16,0 -1.461,0.086 -1.461,1.109 v 2.999 h 0.007 V 9.2 h 2.616 V 9.196 c 1.282,-0.045 1.65,-0.591 1.786,-1.276 h 0.53 v 3.538 m 72.047,0 h -0.53 c -0.125,-0.632 -0.452,-1.252 -1.512,-1.251 l -2.89,-0.006 v 1.524 h -0.008 v 2.87 c 0,1.193 0.302,1.236 1.462,1.236 h 2.575 c 1.164,0 1.788,-0.331 2.017,-1.542 l 0.005,-0.034 h 0.704 l -0.058,2.577 h -9.257 V 5.392 c 0,-2.11 -0.07,-2.11 -2.205,-2.429 V 2.494 h 9.214 c 0.049,0.013 0.472,-0.027 0.884,0.058 0.413,0.084 0.874,0.505 1.045,1.221 l 0.033,1.529 h -0.658 c -0.128,-1.42 -1.068,-1.807 -2.49,-1.807 h -1.81 c -1.159,0 -1.461,0.086 -1.461,1.109 v 2.999 h 0.008 V 9.2 h 2.615 V 9.196 C 165,9.151 165.369,8.605 165.505,7.92 h 0.53 v 3.538"
     id="path100"
     style="fill:#222222;fill-opacity:1;fill-rule:evenodd" />
  <g
     transform="translate(84.25,24.25)"
     id="g107"
     style="fill:#222222;fill-opacity:1;fill-rule:evenodd">
    <path
       d="M 2.333,2.474 1.21,0.047 H 0.127 L 1.85,3.528 V 5.952 H 2.814 V 3.527 L 4.54,0.047 H 3.456 L 2.333,2.474 M 16.177,4.23 c -0.222,0.494 -0.543,0.734 -0.984,0.734 -0.182,0 -0.34,-0.038 -0.472,-0.12 C 14.586,4.775 14.478,4.687 14.395,4.576 14.295,4.465 14.229,4.316 14.197,4.13 14.157,3.937 14.136,3.557 14.136,3 c 0,-0.556 0.021,-0.94 0.06,-1.14 0.033,-0.178 0.1,-0.325 0.202,-0.44 0.082,-0.11 0.188,-0.199 0.323,-0.272 0.132,-0.07 0.292,-0.108 0.47,-0.112 0.247,0.004 0.46,0.078 0.63,0.218 0.169,0.152 0.287,0.338 0.351,0.552 l 0.017,0.061 h 1.06 L 17.23,1.767 C 17.139,1.272 16.915,0.851 16.564,0.515 16.214,0.18 15.754,0.006 15.195,0 14.74,0.006 14.357,0.12 14.054,0.339 13.747,0.552 13.52,0.8 13.382,1.072 c -0.09,0.147 -0.155,0.34 -0.197,0.576 -0.04,0.233 -0.06,0.674 -0.06,1.351 0,0.666 0.02,1.106 0.06,1.345 0.02,0.132 0.047,0.238 0.08,0.324 0.034,0.08 0.072,0.164 0.114,0.254 0.14,0.276 0.367,0.522 0.674,0.732 0.304,0.218 0.688,0.335 1.142,0.346 0.5,0 0.939,-0.15 1.308,-0.444 0.355,-0.295 0.6,-0.724 0.726,-1.272 L 17.253,4.18 H 16.2 l -0.023,0.05"
       mask="url(#prefix__b)"
       id="path105"
       style="fill:#222222;fill-opacity:1" />
  </g>
  <path
     d="m 107.777,26.756 h -2.033 v -2.459 h -1.012 v 5.905 h 1.012 v -2.505 h 2.033 v 2.505 h 1.011 v -5.905 h -1.011 v 2.459"
     id="path109"
     style="fill:#222222;fill-opacity:1;fill-rule:evenodd" />
  <path
     transform="translate(111.25,24.25)"
     style="fill:#222222;fill-opacity:1"
     id="path114"
     mask="url(#prefix__d)"
     d="m 0.171,0.989 h 1.523 v 4.963 h 1.01 V 0.989 H 4.228 V 0.047 H 0.171 V 0.989 M 10.407,3.122 C 10.146,2.793 9.739,2.588 9.198,2.512 8.932,2.478 8.724,2.447 8.578,2.422 8.322,2.373 8.137,2.286 8.025,2.164 7.916,2.047 7.862,1.914 7.862,1.775 7.867,1.523 7.947,1.341 8.107,1.219 8.264,1.097 8.464,1.036 8.7,1.036 9.182,1.046 9.63,1.189 10.031,1.462 L 10.102,1.51 10.663,0.658 10.599,0.61 C 10.075,0.222 9.453,0.016 8.747,0 8.152,0.006 7.685,0.171 7.36,0.488 7.021,0.812 6.85,1.24 6.85,1.762 c 0,0.438 0.137,0.814 0.405,1.12 0.263,0.296 0.646,0.49 1.143,0.575 L 9.131,3.564 C 9.575,3.642 9.788,3.866 9.784,4.248 9.776,4.721 9.444,4.955 8.773,4.964 8.187,4.959 7.674,4.774 7.248,4.414 L 7.183,4.359 6.523,5.14 6.585,5.194 C 7.19,5.73 7.922,6 8.763,6 c 1.319,-0.018 2.002,-0.607 2.032,-1.754 0,-0.426 -0.13,-0.804 -0.388,-1.124" />
  <path
     d="m 92.073,27.979 0.694,-2.17 0.695,2.17 z m 1.106,-3.682 h -0.827 l -2.078,5.905 h 1.073 l 0.426,-1.282 h 1.985 l 0.431,1.282 h 1.07 z M 38.694,27.703 H 82.05 V 26.758 H 38.694 Z m 85.565,0 h 43.357 v -0.945 h -43.357 z"
     id="path118"
     style="fill:#222222;fill-opacity:1;fill-rule:evenodd" />
</svg>
