<?xml version="1.0" encoding="UTF-8"?>
<svg width="460px" height="468px" viewBox="0 0 460 468" version="1.1" xmlns="http://www.w3.org/2000/svg" xmlns:xlink="http://www.w3.org/1999/xlink">
    <title>Group 31</title>
    <g id="Symbols" stroke="none" stroke-width="1" fill="none" fill-rule="evenodd" opacity="0.1">
        <g id="footer-+-newsletter" transform="translate(123.000000, -14.000000)" fill="#FFFFFF">
            <g id="Group-30">
                <g id="Group-14">
                    <g id="Group-12">
                        <g id="Group-5">
                            <g id="Group-31" transform="translate(-123.000000, 14.000000)">
                                <path d="M354,136.443963 C350.856907,91.3981451 283.346235,16.7791974 219.390056,0 L219.385942,0.00821704083 C235.282422,29.186929 204.131245,41.9438849 193.241498,44.7253532 C162.686851,52.5356505 77.2227014,78.2467713 22,217.636543 C21.9964211,217.652977 22.0169911,217.665303 22.0293331,217.648869 C48.1696627,185.314813 94.3163541,202.324088 117.794928,237 C109.715041,199.398821 76.53155,173.737003 69.0399636,168.424686 C105.086795,130.079865 206.97813,51.3523966 354,136.443963" id="Fill-1"></path>
                                <path d="M274,434.513734 C314.658913,454.373659 413.304267,433.466313 460,386.632215 L459.995879,386.624 C426.688289,385.736772 431.274624,352.44932 434.319819,341.621862 C442.874385,311.320587 463.527316,224.606445 370.288316,107.007759 C370.275954,106.991329 370.25535,107.003651 370.263592,107.020081 C385.184634,145.823951 347.257743,177.16854 305.383225,180.068458 C342.061545,191.943338 381.002127,176.133441 389.367141,172.317543 C404.535425,222.696442 421.681643,350.169639 274,434.513734" id="Fill-3"></path>
                                <path d="M56.4609688,216 C18.8997633,241.135839 -12.3436573,336.79921 4.84104664,400.588495 L4.84927292,400.588495 C22.3177836,372.311703 48.863997,392.937563 56.699531,401.016059 C78.663705,423.631737 143.466245,484.983083 292,463.514429 L292,463.489762 C250.922059,456.878962 242.749247,408.383319 261.200799,370.807006 C232.560996,396.481412 226.769694,438.062027 225.856576,447.205322 C174.635629,435.015633 55.621888,385.821086 56.4609688,216" id="Fill-4"></path>
                            </g>
                        </g>
                    </g>
                </g>
            </g>
        </g>
    </g>
</svg>