<svg xmlns="http://www.w3.org/2000/svg" width="52" height="40" viewBox="0 0 52 40">
    <path d="M29.395 33.868c2.3-1.208 4.508-3.113 6.624-5.715 2.117-2.601 3.497-5.11 4.14-7.526-.46.279-1.38.418-2.76.418-2.668 0-4.899-.929-6.693-2.787-1.794-1.858-2.69-4.274-2.69-7.248 0-2.973 1.08-5.551 3.242-7.735C33.42 1.092 35.973 0 38.918 0c3.404 0 6.302 1.278 8.694 3.833C50.004 6.388 51.2 9.849 51.2 14.216c0 5.11-1.265 9.919-3.795 14.425-2.53 4.507-6.003 8.293-10.42 11.359l-7.59-6.132zm-28.153 0c2.3-1.208 4.531-3.113 6.693-5.715 2.162-2.601 3.52-5.11 4.071-7.526-.46.279-1.38.418-2.76.418-2.576 0-4.76-.929-6.555-2.787C.897 16.4 0 13.984 0 11.01 0 8.037 1.058 5.46 3.174 3.275 5.29 1.092 7.866 0 10.902 0c3.405 0 6.28 1.278 8.626 3.833 2.346 2.555 3.519 6.016 3.519 10.383 0 5.11-1.265 9.919-3.795 14.425C16.722 33.148 13.295 36.934 8.97 40l-7.728-6.132z" opacity=".05"/>
</svg>
