<svg xmlns="http://www.w3.org/2000/svg" width="98" height="77" viewBox="0 0 98 77">
    <path fill="none" stroke="#343434" stroke-width="1.2" d="M56.116 64.502c4.313-2.265 8.453-5.837 12.42-10.715 3.968-4.878 6.556-9.581 7.763-14.111-.862.523-2.587.784-5.175.784-5.003 0-9.186-1.742-12.55-5.227-3.364-3.484-5.046-8.014-5.046-13.588 0-5.575 2.027-10.41 6.081-14.504C63.663 3.047 68.45 1 73.97 1c6.383 0 11.817 2.395 16.302 7.186C94.757 12.977 97 19.466 97 27.656c0 9.581-2.372 18.597-7.116 27.046C85.14 63.152 78.628 70.251 70.348 76L56.116 64.502zm-52.787 0c4.313-2.265 8.496-5.837 12.55-10.715s6.598-9.581 7.633-14.111c-.862.523-2.587.784-5.175.784-4.83 0-8.927-1.742-12.291-5.227C2.682 31.75 1 27.22 1 21.645 1 16.07 2.984 11.235 6.951 7.14 10.92 3.047 15.75 1 21.442 1c6.383 0 11.774 2.395 16.173 7.186 4.398 4.791 6.598 11.28 6.598 19.47 0 9.581-2.372 18.597-7.116 27.046-4.744 8.45-11.17 15.549-19.278 21.298L3.33 64.502z" opacity=".204"/>
</svg>
