<svg xmlns="http://www.w3.org/2000/svg" width="52" height="40" viewBox="0 0 52 40">
    <path d="M21.805 6.132c-2.3 1.208-4.508 3.113-6.624 5.715-2.117 2.601-3.497 5.11-4.14 7.526.46-.279 1.38-.418 2.76-.418 2.668 0 4.899.929 6.693 2.787 1.794 1.858 2.69 4.274 2.69 7.248 0 2.973-1.08 5.551-3.242 7.735C17.78 38.908 15.227 40 12.282 40c-3.404 0-6.302-1.278-8.694-3.833C1.196 33.612 0 30.151 0 25.784c0-5.11 1.265-9.919 3.795-14.425C6.325 6.852 9.798 3.066 14.215 0l7.59 6.132zm28.153 0c-2.3 1.208-4.531 3.113-6.693 5.715-2.162 2.601-3.52 5.11-4.071 7.526.46-.279 1.38-.418 2.76-.418 2.576 0 4.76.929 6.555 2.787C50.303 23.6 51.2 26.016 51.2 28.99c0 2.973-1.058 5.551-3.174 7.735C45.91 38.908 43.334 40 40.298 40c-3.405 0-6.28-1.278-8.626-3.833-2.346-2.555-3.519-6.016-3.519-10.383 0-5.11 1.265-9.919 3.795-14.425C34.478 6.852 37.905 3.066 42.23 0l7.728 6.132z" opacity=".05"/>
</svg>
